<svg width="18" height="12" viewBox="0 0 18 12" fill="none" xmlns="http://www.w3.org/2000/svg">
<path fill-rule="evenodd" clip-rule="evenodd" d="M8.99988 7.24994C8.31071 7.24994 7.74988 6.6891 7.74988 5.99994C7.74988 5.31077 8.31071 4.74994 8.99988 4.74994C9.68905 4.74994 10.2499 5.31077 10.2499 5.99994C10.2499 6.6891 9.68905 7.24994 8.99988 7.24994M8.99988 3.08327C7.39155 3.08327 6.08321 4.3916 6.08321 5.99994C6.08321 7.60827 7.39155 8.9166 8.99988 8.9166C10.6082 8.9166 11.9165 7.60827 11.9165 5.99994C11.9165 4.3916 10.6082 3.08327 8.99988 3.08327M9.18296 10.1646C5.59463 10.2479 3.2538 7.17877 2.47713 5.99627C3.33213 4.65877 5.48546 1.92044 8.81713 1.83544C12.3913 1.7446 14.7455 4.82127 15.5221 6.00377C14.668 7.34127 12.5138 10.0796 9.18296 10.1646M17.223 5.58544C16.6913 4.65877 13.7546 0.0137691 8.77463 0.169602C4.16796 0.286269 1.4888 4.3446 0.777129 5.58544C0.629629 5.8421 0.629629 6.15794 0.777129 6.4146C1.3013 7.32877 4.13463 11.8329 9.02046 11.8329C9.0888 11.8329 9.15713 11.8321 9.22546 11.8304C13.8313 11.7129 16.5113 7.65544 17.223 6.4146C17.3696 6.15794 17.3696 5.8421 17.223 5.58544" fill="#8F9BB3"/>
</svg>
